<svg width="55" height="56" viewBox="0 0 55 56" fill="none" xmlns="http://www.w3.org/2000/svg">
<g clip-path="url(#clip0_299_2983)">
<mask id="mask0_299_2983" style="mask-type:luminance" maskUnits="userSpaceOnUse" x="0" y="0" width="55" height="56">
<path d="M54.069 0H0V56H54.069V0Z" fill="white"/>
</mask>
<g mask="url(#mask0_299_2983)">
<path d="M23.9667 1.3877L20.7982 2.23387C4.34154 7.96807 -1.93444 28.5701 8.93357 42.6117C21.4076 58.7291 46.4199 54.3925 53.1067 35.3448L54.0407 32.0087C52.8287 43.7502 43.6362 53.3867 32.2252 55.5102C13.5615 58.9836 -2.74318 42.7174 0.481865 23.8178C2.4873 12.0647 12.1601 2.59795 23.9675 1.38693L23.9667 1.3877Z" fill="url(#paint0_linear_299_2983)"/>
<path d="M48.4678 13.9614C48.48 12.3632 48.0409 10.657 47.2872 9.25464C46.5647 7.91018 45.394 6.9275 44.2706 5.94017C47.9783 7.0432 50.2732 10.6431 50.7474 14.3965C52.4985 28.2584 39.7763 42.6549 28.5478 48.8666C27.8666 49.2437 26.5867 49.9719 25.8955 50.1971C25.335 50.3799 24.194 50.083 23.5839 49.9457C22.5002 49.7019 21.4104 49.354 20.3802 48.9414C20.0495 48.8095 18.345 48.0721 18.2014 47.9031C18.1556 47.8491 18.1212 47.7651 18.2068 47.745C25.0967 44.7352 31.5629 40.5738 37.0958 35.4451C41.1349 31.7009 45.0305 26.6231 47.055 21.4427C47.1695 21.1496 47.5758 20.1893 47.5384 19.9594C47.4445 19.384 46.3142 17.5127 45.9507 16.9296C43.7414 13.3837 40.8699 10.795 37.289 8.71239L36.0266 4.3967C39.7358 5.71262 43.2075 7.90941 45.8743 10.8351C46.7854 11.8348 47.5376 12.978 48.467 13.9614H48.4678Z" fill="url(#paint1_linear_299_2983)"/>
<path d="M6.33408 33.4766C10.1632 32.1445 13.9091 30.2323 17.3189 28.0309C22.793 24.4981 26.3075 20.4215 29.5234 14.7552C30.9202 12.2938 32.139 9.82237 32.4369 6.94371C31.9565 6.86812 31.4823 6.74085 31.0027 6.65677C27.854 6.10603 24.6266 6.23175 21.5223 6.97842C13.3821 8.93763 6.87858 15.8335 5.11141 24.0646C4.97319 24.0646 5.0297 23.7321 5.03734 23.6419C5.24124 21.098 6.73806 17.4348 7.99967 15.2195C12.8682 6.67297 22.3104 2.28013 31.9802 3.46955C32.1306 3.33379 30.7652 1.50107 30.5696 1.309L29.0805 0.0763855C32.4201 0.837705 34.3743 3.86525 34.579 7.20751C35.1793 17.0229 27.3652 26.8407 19.8681 32.227C16.3407 34.7617 12.4138 36.7872 8.44185 38.485L8.35708 38.4117L6.33408 33.4758V33.4766Z" fill="url(#paint2_linear_299_2983)"/>
<path d="M31.8281 50.5993L33.583 50.1759C45.7936 46.7889 48.3939 34.566 51.3899 23.8952C51.4701 23.6098 51.5296 23.1701 51.7488 22.9865C54.5042 35.7956 44.7405 49.3898 31.8281 50.6001V50.5993Z" fill="url(#paint3_linear_299_2983)"/>
</g>
</g>
<defs>
<linearGradient id="paint0_linear_299_2983" x1="-0.305198" y1="3.66169" x2="55.6423" y2="9.59956" gradientUnits="userSpaceOnUse">
<stop stop-color="#3C50B5"/>
<stop offset="1" stop-color="#006CDB"/>
</linearGradient>
<linearGradient id="paint1_linear_299_2983" x1="17.9252" y1="6.30746" x2="52.0638" y2="8.92548" gradientUnits="userSpaceOnUse">
<stop stop-color="#3C50B5"/>
<stop offset="1" stop-color="#006CDB"/>
</linearGradient>
<linearGradient id="paint2_linear_299_2983" x1="4.81253" y1="1.67674" x2="35.6244" y2="4.22546" gradientUnits="userSpaceOnUse">
<stop stop-color="#3C50B5"/>
<stop offset="1" stop-color="#006CDB"/>
</linearGradient>
<linearGradient id="paint3_linear_299_2983" x1="31.6855" y1="24.1371" x2="52.9266" y2="25.821" gradientUnits="userSpaceOnUse">
<stop stop-color="#3C50B5"/>
<stop offset="1" stop-color="#006CDB"/>
</linearGradient>
<clipPath id="clip0_299_2983">
<rect width="54.069" height="56" rx="27.0345" fill="white"/>
</clipPath>
</defs>
</svg>
