<svg width="24" height="24" viewBox="0 0 24 24" fill="none" xmlns="http://www.w3.org/2000/svg">
<path d="M12 22C11.45 22 10.9793 21.8043 10.588 21.413C10.1967 21.0217 10.0007 20.5507 10 20H14C14 20.55 13.8043 21.021 13.413 21.413C13.0217 21.805 12.5507 22.0007 12 22ZM5 19C4.71667 19 4.47934 18.904 4.288 18.712C4.09667 18.52 4.00067 18.2827 4 18C3.99934 17.7173 4.09534 17.48 4.288 17.288C4.48067 17.096 4.718 17 5 17H6V10C6 8.61667 6.41667 7.38767 7.25 6.313C8.08334 5.23833 9.16667 4.534 10.5 4.2V3.5C10.5 3.08333 10.646 2.72933 10.938 2.438C11.23 2.14667 11.584 2.00067 12 2C12.416 1.99933 12.7703 2.14533 13.063 2.438C13.3557 2.73067 13.5013 3.08467 13.5 3.5V3.825C13.3333 4.15833 13.2083 4.50833 13.125 4.875C13.0417 5.24167 13 5.61667 13 6C13 7.38333 13.4877 8.56267 14.463 9.538C15.4383 10.5133 16.6173 11.0007 18 11V17H19C19.2833 17 19.521 17.096 19.713 17.288C19.905 17.48 20.0007 17.7173 20 18C19.9993 18.2827 19.9033 18.5203 19.712 18.713C19.5207 18.9057 19.2833 19.0013 19 19H5ZM18 9C17.1667 9 16.4583 8.70833 15.875 8.125C15.2917 7.54167 15 6.83333 15 6C15 5.16667 15.2917 4.45833 15.875 3.875C16.4583 3.29167 17.1667 3 18 3C18.8333 3 19.5417 3.29167 20.125 3.875C20.7083 4.45833 21 5.16667 21 6C21 6.83333 20.7083 7.54167 20.125 8.125C19.5417 8.70833 18.8333 9 18 9Z" fill="black"/>
</svg>
