<svg width="24" height="18" viewBox="0 0 24 18" fill="none" xmlns="http://www.w3.org/2000/svg">
<path fill-rule="evenodd" clip-rule="evenodd" d="M3.06977 0C2.25561 0 1.47481 0.336462 0.899114 0.935368C0.323421 1.53427 0 2.34657 0 3.19355V14.8065C0 15.6534 0.323421 16.4657 0.899114 17.0646C1.47481 17.6635 2.25561 18 3.06977 18H20.9302C21.7444 18 22.5252 17.6635 23.1009 17.0646C23.6766 16.4657 24 15.6534 24 14.8065V3.19355C24 2.34657 23.6766 1.53427 23.1009 0.935368C22.5252 0.336462 21.7444 0 20.9302 0H3.06977ZM6.8986 4.8031C6.71663 4.67956 6.49562 4.63447 6.28227 4.67734C6.06892 4.72022 5.87996 4.84772 5.75531 5.03288C5.63067 5.21804 5.5801 5.44636 5.6143 5.6696C5.64851 5.89283 5.7648 6.09349 5.93861 6.22916L11.52 10.2937C11.6607 10.3961 11.8283 10.451 12 10.451C12.1717 10.451 12.3393 10.3961 12.48 10.2937L18.0614 6.22916C18.1554 6.16534 18.2361 6.08251 18.2987 5.98558C18.3613 5.88866 18.4046 5.77963 18.4259 5.66497C18.4472 5.55031 18.4461 5.43236 18.4227 5.31815C18.3993 5.20394 18.354 5.09579 18.2896 5.00013C18.2252 4.90448 18.143 4.82327 18.0478 4.76134C17.9527 4.69942 17.8465 4.65803 17.7357 4.63965C17.6248 4.62126 17.5115 4.62626 17.4026 4.65434C17.2936 4.68242 17.1912 4.73301 17.1014 4.8031L12 8.51806L6.8986 4.8031Z" fill="black"/>
</svg>
